<svg xmlns="http://www.w3.org/2000/svg" width="32" height="32" id="shield">
  <path fill="#7CB342" d="M15.484 2.997A19 19 0 0 1 6 8.2v9.533C6 22.866 9.793 24.79 15.482 28h.016c5.689-3.21 9.482-5.135 9.482-10.267V8.196a19 19 0 0 1-9.496-5.2z"></path><path fill="#58802d" d="M20.99 15.5a5.5 5.5 0 0 1-5.5 5.5 5.5 5.5 0 0 1-5.5-5.5 5.5 5.5 0 0 1 5.5-5.5 5.5 5.5 0 0 1 5.5 5.5z"></path><path fill="#f9f9f9" d="M11.99 19.5a3.5 3.5 0 0 1 7-.044l-3.5 1.522z"></path><path fill="#f9f9f9" d="M16.99 14.5a1.5 1.5 0 0 1-1.5 1.5 1.5 1.5 0 0 1-1.5-1.5 1.5 1.5 0 0 1 1.5-1.5 1.5 1.5 0 0 1 1.5 1.5z"></path><path fill="#f9f9f9" d="M15.491 16a3.5 3.5 0 0 0-3.5 3.5 3.5 3.5 0 0 0 .008.248 5.5 5.5 0 0 0 3.492 1.251 5.5 5.5 0 0 0 3.489-1.251 3.5 3.5 0 0 0 .011-.249 3.5 3.5 0 0 0-3.5-3.5z"></path>
</svg>
